<mxfile host="app.diagrams.net" agent="Mozilla/5.0 (Windows NT 10.0; Win64; x64) AppleWebKit/537.36 (KHTML, like Gecko) Chrome/133.0.0.0 Safari/537.36" version="26.0.12">
  <diagram name="Page-1" id="elkmZTShjGuOwlWMHJTr">
    <mxGraphModel dx="2109" dy="655" grid="1" gridSize="10" guides="1" tooltips="1" connect="1" arrows="1" fold="1" page="1" pageScale="1" pageWidth="850" pageHeight="1100" math="0" shadow="0">
      <root>
        <mxCell id="0" />
        <mxCell id="1" parent="0" />
        <mxCell id="M2psO-3L-w-D-ohN8lXd-1" value="AWS Account" style="points=[[0,0],[0.25,0],[0.5,0],[0.75,0],[1,0],[1,0.25],[1,0.5],[1,0.75],[1,1],[0.75,1],[0.5,1],[0.25,1],[0,1],[0,0.75],[0,0.5],[0,0.25]];outlineConnect=0;gradientColor=none;html=1;whiteSpace=wrap;fontSize=12;fontStyle=0;container=1;pointerEvents=0;collapsible=0;recursiveResize=0;shape=mxgraph.aws4.group;grIcon=mxgraph.aws4.group_account;strokeColor=#CD2264;fillColor=none;verticalAlign=top;align=left;spacingLeft=30;fontColor=#CD2264;dashed=0;strokeWidth=2;" parent="1" vertex="1">
          <mxGeometry y="40" width="1080" height="540" as="geometry" />
        </mxCell>
        <mxCell id="M2psO-3L-w-D-ohN8lXd-2" value="VPC" style="points=[[0,0],[0.25,0],[0.5,0],[0.75,0],[1,0],[1,0.25],[1,0.5],[1,0.75],[1,1],[0.75,1],[0.5,1],[0.25,1],[0,1],[0,0.75],[0,0.5],[0,0.25]];outlineConnect=0;gradientColor=none;html=1;whiteSpace=wrap;fontSize=12;fontStyle=0;container=1;pointerEvents=0;collapsible=0;recursiveResize=0;shape=mxgraph.aws4.group;grIcon=mxgraph.aws4.group_vpc2;strokeColor=#8C4FFF;fillColor=none;verticalAlign=top;align=left;spacingLeft=30;fontColor=#AAB7B8;dashed=0;" parent="M2psO-3L-w-D-ohN8lXd-1" vertex="1">
          <mxGeometry x="120" y="40" width="920" height="480" as="geometry" />
        </mxCell>
        <mxCell id="M2psO-3L-w-D-ohN8lXd-3" value="" style="rounded=1;arcSize=10;dashed=1;strokeColor=#F59D56;fillColor=none;gradientColor=none;dashPattern=8 4;strokeWidth=2;" parent="M2psO-3L-w-D-ohN8lXd-2" vertex="1">
          <mxGeometry x="40" y="40" width="840" height="120" as="geometry" />
        </mxCell>
        <mxCell id="M2psO-3L-w-D-ohN8lXd-4" value="" style="rounded=1;arcSize=10;dashed=1;strokeColor=#2669FF;fillColor=none;gradientColor=none;dashPattern=8 4;strokeWidth=2;" parent="M2psO-3L-w-D-ohN8lXd-2" vertex="1">
          <mxGeometry x="40" y="320" width="840" height="120" as="geometry" />
        </mxCell>
        <mxCell id="M2psO-3L-w-D-ohN8lXd-5" value="Public subnet" style="points=[[0,0],[0.25,0],[0.5,0],[0.75,0],[1,0],[1,0.25],[1,0.5],[1,0.75],[1,1],[0.75,1],[0.5,1],[0.25,1],[0,1],[0,0.75],[0,0.5],[0,0.25]];outlineConnect=0;html=1;whiteSpace=wrap;fontSize=12;fontStyle=0;container=1;pointerEvents=0;collapsible=0;recursiveResize=0;shape=mxgraph.aws4.group;grIcon=mxgraph.aws4.group_security_group;grStroke=0;strokeColor=#82b366;fillColor=#d5e8d4;verticalAlign=top;align=left;spacingLeft=30;dashed=0;" parent="M2psO-3L-w-D-ohN8lXd-2" vertex="1">
          <mxGeometry x="80" y="80" width="240" height="320" as="geometry" />
        </mxCell>
        <mxCell id="M2psO-3L-w-D-ohN8lXd-9" value="&lt;b&gt;Jump Host&lt;/b&gt;" style="text;html=1;align=center;verticalAlign=middle;resizable=0;points=[];autosize=1;strokeColor=none;fillColor=none;" parent="M2psO-3L-w-D-ohN8lXd-5" vertex="1">
          <mxGeometry x="20" y="70" width="90" height="30" as="geometry" />
        </mxCell>
        <mxCell id="M2psO-3L-w-D-ohN8lXd-10" value="" style="html=1;verticalLabelPosition=bottom;align=center;labelBackgroundColor=#ffffff;verticalAlign=top;strokeWidth=2;strokeColor=#0080F0;shadow=0;dashed=0;shape=mxgraph.ios7.icons.locked;" parent="M2psO-3L-w-D-ohN8lXd-5" vertex="1">
          <mxGeometry x="86" y="30" width="24" height="30" as="geometry" />
        </mxCell>
        <mxCell id="M2psO-3L-w-D-ohN8lXd-13" value="" style="sketch=0;points=[[0,0,0],[0.25,0,0],[0.5,0,0],[0.75,0,0],[1,0,0],[0,1,0],[0.25,1,0],[0.5,1,0],[0.75,1,0],[1,1,0],[0,0.25,0],[0,0.5,0],[0,0.75,0],[1,0.25,0],[1,0.5,0],[1,0.75,0]];outlineConnect=0;fontColor=#232F3E;fillColor=#ED7100;strokeColor=#ffffff;dashed=0;verticalLabelPosition=bottom;verticalAlign=top;align=center;html=1;fontSize=12;fontStyle=0;aspect=fixed;shape=mxgraph.aws4.resourceIcon;resIcon=mxgraph.aws4.ec2;" parent="M2psO-3L-w-D-ohN8lXd-5" vertex="1">
          <mxGeometry x="86" y="110" width="50" height="50" as="geometry" />
        </mxCell>
        <mxCell id="M2psO-3L-w-D-ohN8lXd-14" value="" style="sketch=0;points=[[0,0,0],[0.25,0,0],[0.5,0,0],[0.75,0,0],[1,0,0],[0,1,0],[0.25,1,0],[0.5,1,0],[0.75,1,0],[1,1,0],[0,0.25,0],[0,0.5,0],[0,0.75,0],[1,0.25,0],[1,0.5,0],[1,0.75,0]];outlineConnect=0;fontColor=#232F3E;fillColor=#ED7100;strokeColor=#ffffff;dashed=0;verticalLabelPosition=bottom;verticalAlign=top;align=center;html=1;fontSize=12;fontStyle=0;aspect=fixed;shape=mxgraph.aws4.resourceIcon;resIcon=mxgraph.aws4.ec2;" parent="M2psO-3L-w-D-ohN8lXd-5" vertex="1">
          <mxGeometry x="86" y="180" width="50" height="50" as="geometry" />
        </mxCell>
        <mxCell id="4KMdO2l-BCMSdbVeLTO4-5" style="edgeStyle=orthogonalEdgeStyle;rounded=0;orthogonalLoop=1;jettySize=auto;html=1;" parent="M2psO-3L-w-D-ohN8lXd-5" source="4KMdO2l-BCMSdbVeLTO4-1" edge="1">
          <mxGeometry relative="1" as="geometry">
            <mxPoint x="250" y="160" as="targetPoint" />
          </mxGeometry>
        </mxCell>
        <mxCell id="4KMdO2l-BCMSdbVeLTO4-1" value="" style="html=1;strokeWidth=1;shadow=0;dashed=0;shape=mxgraph.ios7.misc.vpn;fillColor=#007AFF;strokeColor=none;buttonText=;strokeColor2=#222222;fontColor=#222222;fontSize=8;verticalLabelPosition=bottom;verticalAlign=top;align=center;sketch=0;" parent="M2psO-3L-w-D-ohN8lXd-5" vertex="1">
          <mxGeometry x="35" y="240" width="60" height="60" as="geometry" />
        </mxCell>
        <mxCell id="M2psO-3L-w-D-ohN8lXd-6" value="Private subnet" style="points=[[0,0],[0.25,0],[0.5,0],[0.75,0],[1,0],[1,0.25],[1,0.5],[1,0.75],[1,1],[0.75,1],[0.5,1],[0.25,1],[0,1],[0,0.75],[0,0.5],[0,0.25]];outlineConnect=0;html=1;whiteSpace=wrap;fontSize=12;fontStyle=0;container=1;pointerEvents=0;collapsible=0;recursiveResize=0;shape=mxgraph.aws4.group;grIcon=mxgraph.aws4.group_security_group;grStroke=0;strokeColor=#6c8ebf;fillColor=#dae8fc;verticalAlign=top;align=left;spacingLeft=30;dashed=0;" parent="M2psO-3L-w-D-ohN8lXd-2" vertex="1">
          <mxGeometry x="400" y="80" width="245" height="320" as="geometry" />
        </mxCell>
        <mxCell id="M2psO-3L-w-D-ohN8lXd-19" value="" style="sketch=0;points=[[0,0,0],[0.25,0,0],[0.5,0,0],[0.75,0,0],[1,0,0],[0,1,0],[0.25,1,0],[0.5,1,0],[0.75,1,0],[1,1,0],[0,0.25,0],[0,0.5,0],[0,0.75,0],[1,0.25,0],[1,0.5,0],[1,0.75,0]];outlineConnect=0;fontColor=#232F3E;fillColor=#ED7100;strokeColor=#ffffff;dashed=0;verticalLabelPosition=bottom;verticalAlign=top;align=center;html=1;fontSize=12;fontStyle=0;aspect=fixed;shape=mxgraph.aws4.resourceIcon;resIcon=mxgraph.aws4.ec2;" parent="M2psO-3L-w-D-ohN8lXd-6" vertex="1">
          <mxGeometry x="97.5" y="110" width="50" height="50" as="geometry" />
        </mxCell>
        <mxCell id="M2psO-3L-w-D-ohN8lXd-20" value="" style="sketch=0;points=[[0,0,0],[0.25,0,0],[0.5,0,0],[0.75,0,0],[1,0,0],[0,1,0],[0.25,1,0],[0.5,1,0],[0.75,1,0],[1,1,0],[0,0.25,0],[0,0.5,0],[0,0.75,0],[1,0.25,0],[1,0.5,0],[1,0.75,0]];outlineConnect=0;fontColor=#232F3E;fillColor=#ED7100;strokeColor=#ffffff;dashed=0;verticalLabelPosition=bottom;verticalAlign=top;align=center;html=1;fontSize=12;fontStyle=0;aspect=fixed;shape=mxgraph.aws4.resourceIcon;resIcon=mxgraph.aws4.ec2;" parent="M2psO-3L-w-D-ohN8lXd-6" vertex="1">
          <mxGeometry x="97.5" y="188" width="50" height="50" as="geometry" />
        </mxCell>
        <mxCell id="M2psO-3L-w-D-ohN8lXd-8" value="" style="sketch=0;points=[[0,0,0],[0.25,0,0],[0.5,0,0],[0.75,0,0],[1,0,0],[0,1,0],[0.25,1,0],[0.5,1,0],[0.75,1,0],[1,1,0],[0,0.25,0],[0,0.5,0],[0,0.75,0],[1,0.25,0],[1,0.5,0],[1,0.75,0]];outlineConnect=0;fontColor=#232F3E;fillColor=#ED7100;strokeColor=#ffffff;dashed=0;verticalLabelPosition=bottom;verticalAlign=top;align=center;html=1;fontSize=12;fontStyle=0;aspect=fixed;shape=mxgraph.aws4.resourceIcon;resIcon=mxgraph.aws4.ec2;" parent="M2psO-3L-w-D-ohN8lXd-2" vertex="1">
          <mxGeometry x="120" y="100" width="50" height="50" as="geometry" />
        </mxCell>
        <mxCell id="M2psO-3L-w-D-ohN8lXd-11" value="" style="outlineConnect=0;dashed=0;verticalLabelPosition=bottom;verticalAlign=top;align=center;html=1;shape=mxgraph.aws3.application_load_balancer;fillColor=#F58534;gradientColor=none;" parent="M2psO-3L-w-D-ohN8lXd-2" vertex="1">
          <mxGeometry x="340" y="212" width="60" height="56" as="geometry" />
        </mxCell>
        <mxCell id="M2psO-3L-w-D-ohN8lXd-15" style="edgeStyle=orthogonalEdgeStyle;rounded=0;orthogonalLoop=1;jettySize=auto;html=1;" parent="M2psO-3L-w-D-ohN8lXd-2" source="M2psO-3L-w-D-ohN8lXd-12" target="M2psO-3L-w-D-ohN8lXd-13" edge="1">
          <mxGeometry relative="1" as="geometry" />
        </mxCell>
        <mxCell id="M2psO-3L-w-D-ohN8lXd-16" style="edgeStyle=orthogonalEdgeStyle;rounded=0;orthogonalLoop=1;jettySize=auto;html=1;" parent="M2psO-3L-w-D-ohN8lXd-2" source="M2psO-3L-w-D-ohN8lXd-12" target="M2psO-3L-w-D-ohN8lXd-14" edge="1">
          <mxGeometry relative="1" as="geometry" />
        </mxCell>
        <mxCell id="M2psO-3L-w-D-ohN8lXd-12" value="" style="outlineConnect=0;dashed=0;verticalLabelPosition=bottom;verticalAlign=top;align=center;html=1;shape=mxgraph.aws3.application_load_balancer;fillColor=#F58534;gradientColor=none;" parent="M2psO-3L-w-D-ohN8lXd-2" vertex="1">
          <mxGeometry x="10" y="212" width="60" height="56" as="geometry" />
        </mxCell>
        <mxCell id="M2psO-3L-w-D-ohN8lXd-17" style="edgeStyle=orthogonalEdgeStyle;rounded=0;orthogonalLoop=1;jettySize=auto;html=1;" parent="M2psO-3L-w-D-ohN8lXd-2" source="M2psO-3L-w-D-ohN8lXd-13" target="M2psO-3L-w-D-ohN8lXd-11" edge="1">
          <mxGeometry relative="1" as="geometry" />
        </mxCell>
        <mxCell id="M2psO-3L-w-D-ohN8lXd-18" style="edgeStyle=orthogonalEdgeStyle;rounded=0;orthogonalLoop=1;jettySize=auto;html=1;entryX=0;entryY=0.5;entryDx=0;entryDy=0;entryPerimeter=0;" parent="M2psO-3L-w-D-ohN8lXd-2" source="M2psO-3L-w-D-ohN8lXd-14" target="M2psO-3L-w-D-ohN8lXd-11" edge="1">
          <mxGeometry relative="1" as="geometry" />
        </mxCell>
        <mxCell id="M2psO-3L-w-D-ohN8lXd-21" style="edgeStyle=orthogonalEdgeStyle;rounded=0;orthogonalLoop=1;jettySize=auto;html=1;entryX=0;entryY=0.5;entryDx=0;entryDy=0;entryPerimeter=0;" parent="M2psO-3L-w-D-ohN8lXd-2" source="M2psO-3L-w-D-ohN8lXd-11" target="M2psO-3L-w-D-ohN8lXd-19" edge="1">
          <mxGeometry relative="1" as="geometry" />
        </mxCell>
        <mxCell id="M2psO-3L-w-D-ohN8lXd-22" style="edgeStyle=orthogonalEdgeStyle;rounded=0;orthogonalLoop=1;jettySize=auto;html=1;entryX=0;entryY=0.5;entryDx=0;entryDy=0;entryPerimeter=0;" parent="M2psO-3L-w-D-ohN8lXd-2" source="M2psO-3L-w-D-ohN8lXd-11" target="M2psO-3L-w-D-ohN8lXd-20" edge="1">
          <mxGeometry relative="1" as="geometry" />
        </mxCell>
        <mxCell id="M2psO-3L-w-D-ohN8lXd-23" value="" style="html=1;verticalLabelPosition=bottom;align=center;labelBackgroundColor=#ffffff;verticalAlign=top;strokeWidth=2;strokeColor=#0080F0;shadow=0;dashed=0;shape=mxgraph.ios7.icons.locked;" parent="M2psO-3L-w-D-ohN8lXd-2" vertex="1">
          <mxGeometry x="28" y="190" width="24" height="30" as="geometry" />
        </mxCell>
        <mxCell id="9CWY6mBzdQp2oVpXWNoT-1" value="Database subnet" style="points=[[0,0],[0.25,0],[0.5,0],[0.75,0],[1,0],[1,0.25],[1,0.5],[1,0.75],[1,1],[0.75,1],[0.5,1],[0.25,1],[0,1],[0,0.75],[0,0.5],[0,0.25]];outlineConnect=0;html=1;whiteSpace=wrap;fontSize=12;fontStyle=0;container=1;pointerEvents=0;collapsible=0;recursiveResize=0;shape=mxgraph.aws4.group;grIcon=mxgraph.aws4.group_security_group;grStroke=0;strokeColor=#b85450;fillColor=#f8cecc;verticalAlign=top;align=left;spacingLeft=30;dashed=0;" parent="M2psO-3L-w-D-ohN8lXd-2" vertex="1">
          <mxGeometry x="680" y="80" width="175" height="320" as="geometry" />
        </mxCell>
        <mxCell id="4KMdO2l-BCMSdbVeLTO4-6" value="" style="outlineConnect=0;dashed=0;verticalLabelPosition=bottom;verticalAlign=top;align=center;html=1;shape=mxgraph.aws3.rds_db_instance;fillColor=#2E73B8;gradientColor=none;" parent="9CWY6mBzdQp2oVpXWNoT-1" vertex="1">
          <mxGeometry x="70" y="132" width="49.5" height="66" as="geometry" />
        </mxCell>
        <mxCell id="4KMdO2l-BCMSdbVeLTO4-7" value="" style="html=1;verticalLabelPosition=bottom;align=center;labelBackgroundColor=#ffffff;verticalAlign=top;strokeWidth=2;strokeColor=#0080F0;shadow=0;dashed=0;shape=mxgraph.ios7.icons.locked;" parent="9CWY6mBzdQp2oVpXWNoT-1" vertex="1">
          <mxGeometry x="82.75" y="110" width="24" height="30" as="geometry" />
        </mxCell>
        <mxCell id="9CWY6mBzdQp2oVpXWNoT-5" value="" style="html=1;verticalLabelPosition=bottom;align=center;labelBackgroundColor=#ffffff;verticalAlign=top;strokeWidth=2;strokeColor=#0080F0;shadow=0;dashed=0;shape=mxgraph.ios7.icons.locked;" parent="M2psO-3L-w-D-ohN8lXd-2" vertex="1">
          <mxGeometry x="358" y="182" width="24" height="30" as="geometry" />
        </mxCell>
        <mxCell id="4KMdO2l-BCMSdbVeLTO4-8" style="edgeStyle=orthogonalEdgeStyle;rounded=0;orthogonalLoop=1;jettySize=auto;html=1;entryX=0;entryY=0.5;entryDx=0;entryDy=0;entryPerimeter=0;" parent="M2psO-3L-w-D-ohN8lXd-2" source="M2psO-3L-w-D-ohN8lXd-19" target="4KMdO2l-BCMSdbVeLTO4-6" edge="1">
          <mxGeometry relative="1" as="geometry" />
        </mxCell>
        <mxCell id="4KMdO2l-BCMSdbVeLTO4-10" style="edgeStyle=orthogonalEdgeStyle;rounded=0;orthogonalLoop=1;jettySize=auto;html=1;" parent="M2psO-3L-w-D-ohN8lXd-2" source="4KMdO2l-BCMSdbVeLTO4-1" target="4KMdO2l-BCMSdbVeLTO4-6" edge="1">
          <mxGeometry relative="1" as="geometry" />
        </mxCell>
        <mxCell id="4KMdO2l-BCMSdbVeLTO4-11" style="edgeStyle=orthogonalEdgeStyle;rounded=0;orthogonalLoop=1;jettySize=auto;html=1;" parent="M2psO-3L-w-D-ohN8lXd-2" source="M2psO-3L-w-D-ohN8lXd-8" target="4KMdO2l-BCMSdbVeLTO4-6" edge="1">
          <mxGeometry relative="1" as="geometry" />
        </mxCell>
        <mxCell id="4KMdO2l-BCMSdbVeLTO4-3" value="" style="points=[[0.35,0,0],[0.98,0.51,0],[1,0.71,0],[0.67,1,0],[0,0.795,0],[0,0.65,0]];verticalLabelPosition=bottom;sketch=0;html=1;verticalAlign=top;aspect=fixed;align=center;pointerEvents=1;shape=mxgraph.cisco19.user;fillColor=#005073;strokeColor=none;" parent="1" vertex="1">
          <mxGeometry x="-180" y="390" width="100" height="100" as="geometry" />
        </mxCell>
        <mxCell id="4KMdO2l-BCMSdbVeLTO4-4" style="edgeStyle=orthogonalEdgeStyle;rounded=0;orthogonalLoop=1;jettySize=auto;html=1;entryX=0.173;entryY=0.7;entryDx=0;entryDy=0;entryPerimeter=0;" parent="1" source="4KMdO2l-BCMSdbVeLTO4-3" target="4KMdO2l-BCMSdbVeLTO4-1" edge="1">
          <mxGeometry relative="1" as="geometry" />
        </mxCell>
      </root>
    </mxGraphModel>
  </diagram>
</mxfile>
